<?xml version="1.0" encoding="utf-8" ?>
<svg xmlns="http://www.w3.org/2000/svg" xmlns:xlink="http://www.w3.org/1999/xlink" width="24" height="24">
	<clipPath id="cl_1e">
		<rect width="24" height="24"/>
	</clipPath>
	<g clip-path="url(#cl_1e)">
		<path fill="none" stroke="black" stroke-width="2" stroke-miterlimit="10" transform="matrix(1 0 0 -1 12 3)" d="M-12 0L12 0"/>
		<path fill="none" stroke="black" stroke-width="2" stroke-miterlimit="10" transform="matrix(1 0 0 -1 12 23)" d="M-9 0L9 0"/>
		<path fill="none" stroke="black" stroke-width="2" stroke-miterlimit="10" transform="matrix(0 -1 -1 0 4 14)" d="M-8 0L8 0"/>
		<path fill="none" stroke="black" stroke-width="2" stroke-miterlimit="10" transform="matrix(0 -1 -1 0 8 14)" d="M-8 0L8 0"/>
		<path fill="none" stroke="black" stroke-width="2" stroke-miterlimit="10" transform="matrix(0 -1 -1 0 12 14)" d="M-8 0L8 0"/>
		<path fill="none" stroke="black" stroke-width="2" stroke-miterlimit="10" transform="matrix(0 -1 -1 0 16 14)" d="M-8 0L8 0"/>
		<path fill="none" stroke="black" stroke-width="2" stroke-miterlimit="10" transform="matrix(0 -1 -1 0 20 14)" d="M-8 0L8 0"/>
		<path fill="none" stroke="black" stroke-width="2" stroke-miterlimit="10" transform="matrix(0 -1 -1 0 12 1)" d="M-1 0L1 0"/>
	</g>
</svg>
